<?xml version="1.0" encoding="utf-8"?>
<!-- Generator: Adobe Illustrator 26.3.1, SVG Export Plug-In . SVG Version: 6.00 Build 0)  -->
<svg version="1.1" id="Camada_1" xmlns="http://www.w3.org/2000/svg" xmlns:xlink="http://www.w3.org/1999/xlink" x="0px" y="0px"
	 viewBox="0 0 250 150" style="enable-background:new 0 0 250 150;" xml:space="preserve">
<style type="text/css">
	.st0{fill:#FFFFFF;}
	.st1{fill:#40CAEE;}
</style>
<g>
	<path class="st0" d="M13.13,64.16v22.57H7.24V64.16H13.13z"/>
	<path class="st1" d="M31.64,75.86c1.53,2.36,3.22,4.57,4.71,6.97V64.16h-4.82v11.55C31.57,75.76,31.61,75.8,31.64,75.86z"/>
	<polyline class="st0" points="30.51,78.53 20.64,64.16 15.46,64.16 15.46,86.73 20.96,86.73 20.96,73.21 31.2,86.73 36.35,86.73 	
		"/>
	<path class="st0" d="M61.67,75.43c0,6.73-4.93,11.3-12.23,11.3h-9.5V64.16h9.72C56.81,64.16,61.67,68.74,61.67,75.43z M55.65,75.5
		c0-3.9-2.54-6.54-6.12-6.54h-3.7v13.01h3.99C53.24,81.97,55.65,79.36,55.65,75.5z"/>
	<path class="st0" d="M74.71,81.97c2.61,0,4.41-1.77,4.41-4.7v-13.1h5.89v13.1c0,5.96-3.99,9.72-10.33,9.72
		c-6.37,0-10.46-3.77-10.46-9.72v-13.1h5.89v13.1C70.11,80.16,72.04,81.97,74.71,81.97z"/>
	<path class="st0" d="M97.28,68.7c-1.42,0-2.35,0.52-2.35,1.55c0,3.73,11.88,1.61,11.88,9.72c0,4.6-4.06,6.95-9.08,6.95
		c-3.77,0-7.69-1.38-10.4-3.61l2.29-4.6c2.32,2,5.83,3.41,8.18,3.41c1.74,0,2.83-0.64,2.83-1.83c0-3.83-11.88-1.51-11.88-9.5
		c0-4.22,3.57-6.89,9.01-6.89c3.32,0,6.66,1.03,9.01,2.54l-2.22,4.67C102.17,69.77,99.15,68.7,97.28,68.7z"/>
	<path class="st0" d="M114.53,71.83v15.1h5.89v-15.1c0-1.28-1.04-2.32-2.32-2.32h-1.26C115.57,69.52,114.53,70.55,114.53,71.83z"/>
	<polyline class="st0" points="127.19,69.03 127.19,64.16 107.84,64.16 107.84,69.03 	"/>
	<path class="st0" d="M143.12,86.73l-3.28-6.25h-0.13h-4.25v6.25h-5.89V64.16h10.14c5.99,0,9.4,2.9,9.4,7.92
		c0,3.41-1.42,5.92-4.02,7.28l4.7,7.37H143.12z M135.46,75.79h4.28c2.38,0,3.77-1.22,3.77-3.51c0-2.22-1.38-3.41-3.77-3.41h-4.28
		V75.79z"/>
	<path class="st0" d="M158.77,64.16v22.57h-5.89V64.16H158.77z"/>
	<polyline class="st0" points="179.72,86.73 186,86.73 176.54,64.16 170.48,64.16 160.79,86.73 166.85,86.73 168.42,82.74 
		170.2,78.23 173.35,70.18 	"/>
	<path class="st0" d="M201.58,86.73l-3.28-6.25h-0.13h-4.25v6.25h-5.89V64.16h10.14c5.99,0,9.4,2.9,9.4,7.92
		c0,3.41-1.42,5.92-4.02,7.28l4.7,7.37H201.58z M193.92,75.79h4.28c2.38,0,3.77-1.22,3.77-3.51c0-2.22-1.38-3.41-3.77-3.41h-4.28
		V75.79z"/>
	<path class="st0" d="M217.23,64.16v22.57h-5.89V64.16H217.23z"/>
	<polyline class="st0" points="237.72,86.75 244,86.75 234.54,64.18 228.48,64.18 218.79,86.75 224.85,86.75 226.42,82.75 
		228.19,78.25 231.35,70.2 	"/>
</g>
</svg>
